<svg width="116" height="32" viewBox="0 0 116 32" fill="none" xmlns="http://www.w3.org/2000/svg">
<g clip-path="url(#clip0_10_707)">
<path d="M12.0919 1.6444C12.3388 1.6444 12.4684 1.80247 12.4684 2.1186V11.0462C12.4684 12.0831 12.382 12.962 12.2153 13.6891C12.0425 14.4162 11.7709 15.0042 11.3944 15.4594C11.0117 15.9146 10.5241 16.2371 9.91917 16.4394C9.31427 16.6418 8.57974 16.7429 7.72176 16.7429H1.09248C0.833236 16.7429 0.703613 16.5848 0.703613 16.2687V14.1569C0.703613 13.8408 0.833236 13.6827 1.09248 13.6827H7.62917C8.07359 13.6827 8.43777 13.6385 8.72788 13.5436C9.01799 13.4488 9.24637 13.2907 9.41303 13.0694C9.58586 12.8482 9.70313 12.5447 9.77103 12.1653C9.83893 11.7859 9.87596 11.3054 9.87596 10.7301V2.1186C9.87596 1.80247 10.0056 1.6444 10.2648 1.6444H12.0981H12.0919Z" fill="white"/>
<path d="M43.1953 1.6444C43.4422 1.6444 43.5718 1.80247 43.5718 2.1186V4.23037C43.5718 4.55915 43.4483 4.72354 43.1953 4.72354H34.6896C34.2513 4.72354 33.881 4.7678 33.5908 4.86264C33.3007 4.95748 33.0724 5.11554 32.9057 5.33683C32.7329 5.55813 32.6156 5.85529 32.5415 6.23465C32.4674 6.60769 32.4304 7.08189 32.4304 7.65725V10.7617C32.4304 11.337 32.4674 11.8176 32.5415 12.1969C32.6156 12.5763 32.739 12.8798 32.9057 13.1011C33.0785 13.3224 33.3069 13.4804 33.5908 13.5753C33.881 13.6701 34.2451 13.7144 34.6896 13.7144H40.2942C40.5905 13.7144 40.8065 13.6195 40.9423 13.4235C41.0781 13.2275 41.146 12.8861 41.146 12.3992V10.6542C41.146 10.4708 41.0781 10.376 40.9423 10.376H35.9673C35.7204 10.376 35.5969 10.2116 35.5969 9.88283V8.26423C35.5969 7.93545 35.7204 7.77106 35.9673 7.77106H43.0471C43.3866 7.77106 43.5595 7.98603 43.5595 8.41597V13.4425C43.5595 14.6501 43.3804 15.5037 43.0163 15.9968C42.6521 16.49 42.1336 16.7429 41.4546 16.7429H34.5908C33.7328 16.7429 32.9983 16.6418 32.3996 16.4394C31.8008 16.2371 31.307 15.9083 30.9305 15.4594C30.5478 15.0042 30.2762 14.4162 30.0972 13.6891C29.9182 12.962 29.8318 12.0831 29.8318 11.0462V7.3348C29.8318 6.29788 29.9182 5.42535 30.0972 4.70457C30.27 3.98379 30.5478 3.4021 30.9305 2.94687C31.307 2.49164 31.8008 2.16286 32.3996 1.95421C32.9983 1.74556 33.7328 1.6444 34.5908 1.6444H43.2014H43.1953Z" fill="white"/>
<path d="M63.9781 1.6444C64.0892 1.6444 64.1694 1.73924 64.2188 1.9226L66.9717 13.5247C66.9841 13.6258 67.0273 13.6764 67.1075 13.6764H67.194C67.2619 13.6764 67.3051 13.6258 67.3298 13.5247L70.0827 2.89629C70.2061 2.40945 70.3728 2.07435 70.5765 1.90363C70.7802 1.73292 71.0333 1.6444 71.3419 1.6444H73.0208C73.3973 1.6444 73.6813 1.73924 73.8788 1.9226C74.0763 2.11228 74.2368 2.43474 74.3602 2.88997L77.1811 13.5184C77.2058 13.6195 77.249 13.6701 77.3169 13.6701H77.4218C77.4897 13.6701 77.5329 13.6195 77.5576 13.5184L80.2426 1.91628C80.2673 1.80247 80.3044 1.7266 80.3537 1.68866C80.4031 1.65073 80.4587 1.63176 80.5142 1.63176H82.8042C82.8968 1.63176 82.9462 1.68234 82.9647 1.7835C82.9832 1.88467 82.9709 1.99847 82.94 2.13125L79.6809 15.0927C79.5205 15.7376 79.3476 16.1739 79.1563 16.3952C78.9649 16.6165 78.7057 16.7303 78.3724 16.7303H76.3848C76.0577 16.7303 75.7984 16.6165 75.6133 16.3825C75.4281 16.1549 75.2491 15.7186 75.0763 15.0864L72.4097 4.84367C72.3974 4.74251 72.3542 4.69193 72.2739 4.69193H72.206C72.1258 4.69193 72.0826 4.74251 72.0702 4.84367L69.3729 15.0864C69.2 15.7186 69.0272 16.1486 68.8358 16.3825C68.6507 16.6101 68.3914 16.7303 68.0643 16.7303H66.1261C65.9348 16.7303 65.7681 16.7113 65.6261 16.667C65.4842 16.6228 65.3545 16.5406 65.2434 16.4205C65.1323 16.3003 65.0336 16.1296 64.9472 15.9146C64.8607 15.6997 64.7805 15.4278 64.7003 15.0927L61.577 2.13125C61.5461 1.98583 61.5338 1.8657 61.5523 1.77718C61.5708 1.68234 61.6264 1.63808 61.7128 1.63808H63.9904L63.9781 1.6444Z" fill="white"/>
<path d="M0.308594 29.8245L2.6418 24.1151H3.50595L5.99348 29.8245H5.07995L4.37011 28.0921H1.82703L1.1604 29.8245H0.308594ZM2.06159 27.4788H4.11703L3.48126 25.8981C3.28992 25.4176 3.14178 25.0256 3.04919 24.7158C2.97512 25.0825 2.86401 25.4429 2.72205 25.8096L2.05541 27.4851L2.06159 27.4788Z" fill="white"/>
<path d="M7.30817 30.1659L8.03036 30.2671C8.06122 30.4757 8.14764 30.6338 8.28343 30.7286C8.46861 30.8614 8.72168 30.9246 9.04265 30.9246C9.38831 30.9246 9.65373 30.8614 9.8389 30.7286C10.0241 30.5959 10.1537 30.4188 10.2216 30.1849C10.2586 30.0395 10.2772 29.7423 10.2772 29.2871C9.95001 29.6475 9.54262 29.8308 9.06117 29.8308C8.45626 29.8308 7.98715 29.6285 7.65383 29.2175C7.32052 28.8065 7.16003 28.3134 7.16003 27.7443C7.16003 27.3523 7.2341 26.9856 7.38842 26.6505C7.54273 26.3154 7.75877 26.0562 8.04888 25.8792C8.33898 25.7021 8.67847 25.6073 9.06734 25.6073C9.58583 25.6073 10.0179 25.8033 10.3512 26.2016V25.7021H11.0364V29.2807C11.0364 29.9257 10.9685 30.3809 10.8265 30.6528C10.6845 30.9183 10.4685 31.1333 10.166 31.2913C9.86359 31.4494 9.49324 31.5253 9.04882 31.5253C8.52416 31.5253 8.09826 31.4178 7.77729 31.1902C7.45631 30.9689 7.29583 30.6338 7.30817 30.1849V30.1659ZM7.92543 27.6811C7.92543 28.2249 8.0427 28.6169 8.27109 28.8698C8.49947 29.1164 8.78958 29.2428 9.13524 29.2428C9.4809 29.2428 9.76483 29.1164 9.99939 28.8698C10.2339 28.6232 10.3451 28.2312 10.3451 27.7001C10.3451 27.169 10.2278 26.8149 9.98704 26.5557C9.74632 26.2964 9.46238 26.17 9.12289 26.17C8.7834 26.17 8.51181 26.2964 8.27726 26.5494C8.0427 26.8023 7.9316 27.1753 7.9316 27.6748L7.92543 27.6811Z" fill="white"/>
<path d="M13.061 29.8245V25.6895H13.7338V26.3154C13.9067 26.0246 14.061 25.8286 14.2091 25.7337C14.3573 25.6389 14.5116 25.5946 14.6906 25.5946C14.9437 25.5946 15.1967 25.6705 15.456 25.8223L15.1967 26.4735C15.0115 26.3723 14.8325 26.3217 14.6474 26.3217C14.4869 26.3217 14.3387 26.366 14.2091 26.4608C14.0795 26.5557 13.9869 26.6821 13.9314 26.8465C13.8511 27.0931 13.8079 27.365 13.8079 27.6621V29.8308H13.061V29.8245Z" fill="white"/>
<path d="M16.8077 24.9181V24.1088H17.5546V24.9181H16.8077ZM16.8077 29.8245V25.6895H17.5546V29.8245H16.8077Z" fill="white"/>
<path d="M22.4679 28.3071L23.2024 28.3956C23.1222 28.8698 22.9185 29.2428 22.5851 29.5084C22.2518 29.7802 21.8506 29.913 21.3692 29.913C20.7704 29.913 20.2828 29.7297 19.9186 29.3566C19.5544 28.9899 19.3693 28.4588 19.3693 27.7633C19.3693 27.3144 19.4495 26.9224 19.6038 26.5936C19.7581 26.2585 19.9989 26.0056 20.3198 25.8412C20.6408 25.6705 20.9926 25.5883 21.3692 25.5883C21.8444 25.5883 22.2395 25.7021 22.5419 25.9297C22.8444 26.1574 23.0419 26.4798 23.1283 26.8971L22.4061 27.0046C22.3382 26.7264 22.2148 26.5177 22.042 26.3786C21.8691 26.2395 21.6531 26.17 21.4062 26.17C21.0297 26.17 20.7272 26.2964 20.4927 26.5494C20.2581 26.8023 20.1408 27.2006 20.1408 27.7507C20.1408 28.3007 20.2519 28.7117 20.4803 28.9646C20.7087 29.2175 21.005 29.344 21.3692 29.344C21.6593 29.344 21.9062 29.2618 22.1037 29.0911C22.3012 28.9204 22.4247 28.6611 22.474 28.3134L22.4679 28.3071Z" fill="white"/>
<path d="M27.6343 29.8245V29.2175C27.2948 29.6854 26.8257 29.9193 26.2393 29.9193C25.9801 29.9193 25.7393 29.8751 25.5109 29.7802C25.2887 29.6854 25.1159 29.5716 25.011 29.4262C24.8999 29.2871 24.8258 29.11 24.7826 28.9077C24.7517 28.7686 24.7394 28.5536 24.7394 28.2501V25.6895H25.4863V27.9846C25.4863 28.3513 25.5048 28.5979 25.5295 28.7243C25.5788 28.9077 25.6776 29.0531 25.8257 29.1606C25.9801 29.2681 26.1652 29.3187 26.3874 29.3187C26.6096 29.3187 26.8195 29.2618 27.017 29.1543C27.2146 29.0468 27.3504 28.9014 27.4306 28.7117C27.5108 28.5283 27.554 28.2565 27.554 27.9024V25.6832H28.3009V29.8182H27.6343V29.8245Z" fill="white"/>
<path d="M30.3563 29.8245V24.1151H31.1032V29.8245H30.3563Z" fill="white"/>
<path d="M34.7944 29.1986L34.8994 29.8182C34.6895 29.8561 34.5043 29.8814 34.3377 29.8814C34.0661 29.8814 33.8562 29.8435 33.7081 29.7613C33.5599 29.6791 33.455 29.5779 33.3933 29.4451C33.3316 29.3124 33.3007 29.0405 33.3007 28.6169V26.2395H32.7513V25.6958H33.3007V24.6715L34.0414 24.2479V25.6958H34.7883V26.2395H34.0414V28.6611C34.0414 28.8635 34.0537 28.9899 34.0784 29.0468C34.1031 29.1037 34.1463 29.148 34.2081 29.1796C34.2698 29.2112 34.35 29.2302 34.4611 29.2302C34.5414 29.2302 34.6525 29.2238 34.7883 29.2049L34.7944 29.1986Z" fill="white"/>
<path d="M39.3189 29.8245V29.2175C38.9794 29.6854 38.5103 29.9193 37.9239 29.9193C37.6646 29.9193 37.4239 29.8751 37.1955 29.7802C36.9733 29.6854 36.8005 29.5716 36.6955 29.4262C36.5844 29.2871 36.5104 29.11 36.4672 28.9077C36.4363 28.7686 36.424 28.5536 36.424 28.2501V25.6895H37.1708V27.9846C37.1708 28.3513 37.1893 28.5979 37.214 28.7243C37.2634 28.9077 37.3622 29.0531 37.5103 29.1606C37.6646 29.2681 37.8498 29.3187 38.072 29.3187C38.2942 29.3187 38.5041 29.2618 38.7016 29.1543C38.8991 29.0468 39.0349 28.9014 39.1152 28.7117C39.1954 28.5283 39.2386 28.2565 39.2386 27.9024V25.6832H39.9855V29.8182H39.3189V29.8245Z" fill="white"/>
<path d="M42.0532 29.8245V25.6895H42.726V26.3154C42.8989 26.0246 43.0532 25.8286 43.2013 25.7337C43.3495 25.6389 43.5038 25.5946 43.6828 25.5946C43.9358 25.5946 44.1889 25.6705 44.4482 25.8223L44.1889 26.4735C44.0037 26.3723 43.8247 26.3217 43.6396 26.3217C43.4791 26.3217 43.3309 26.366 43.2013 26.4608C43.0717 26.5557 42.9791 26.6821 42.9235 26.8465C42.8433 27.0931 42.8001 27.365 42.8001 27.6621V29.8308H42.0532V29.8245Z" fill="white"/>
<path d="M48.664 29.3124C48.3862 29.5336 48.1208 29.6917 47.8677 29.7802C47.6147 29.8688 47.3369 29.9193 47.0468 29.9193C46.5653 29.9193 46.195 29.8055 45.9357 29.5842C45.6765 29.3629 45.5469 29.0784 45.5469 28.7307C45.5469 28.5283 45.5963 28.345 45.695 28.1743C45.7938 28.0099 45.9234 27.8708 46.0777 27.7696C46.2382 27.6685 46.4172 27.5926 46.6147 27.542C46.7629 27.5041 46.9789 27.4725 47.2752 27.4345C47.8801 27.365 48.3183 27.2891 48.6084 27.1943C48.6084 27.0994 48.6084 27.0362 48.6084 27.0109C48.6084 26.7264 48.5405 26.5241 48.3986 26.4103C48.2072 26.2522 47.9233 26.17 47.5468 26.17C47.1949 26.17 46.9357 26.2269 46.769 26.3407C46.6024 26.4545 46.4789 26.6632 46.3987 26.954L45.6703 26.8592C45.7382 26.5683 45.8432 26.3281 45.9975 26.151C46.1518 25.9677 46.3678 25.8286 46.6579 25.7337C46.948 25.6389 47.2752 25.5883 47.6579 25.5883C48.0406 25.5883 48.3369 25.6326 48.5714 25.7148C48.806 25.797 48.9788 25.9044 49.0899 26.0309C49.201 26.1574 49.2751 26.3154 49.3245 26.5051C49.3491 26.6252 49.3615 26.8402 49.3615 27.15V28.0858C49.3615 28.737 49.38 29.148 49.4109 29.325C49.4417 29.4957 49.5035 29.6664 49.596 29.8245H48.8183C48.7442 29.6791 48.6887 29.5084 48.6702 29.3124H48.664ZM48.6023 27.7507C48.3307 27.8518 47.9233 27.9403 47.3863 28.0162C47.0777 28.0605 46.8616 28.1047 46.7382 28.1553C46.6085 28.2059 46.5098 28.2818 46.4419 28.3829C46.374 28.4841 46.337 28.5916 46.337 28.718C46.337 28.9077 46.411 29.0594 46.5653 29.1859C46.7135 29.3124 46.9357 29.3756 47.2258 29.3756C47.5159 29.3756 47.769 29.3187 47.9912 29.1985C48.2134 29.0784 48.3801 28.9204 48.485 28.7117C48.5652 28.5536 48.6084 28.3197 48.6084 28.0099V27.7507H48.6023Z" fill="white"/>
<path d="M51.4047 29.8245V24.1151H52.1515V29.8245H51.4047Z" fill="white"/>
<path d="M57.571 29.8245V24.1151H59.6635C60.1326 24.1151 60.4968 24.1404 60.7437 24.1973C61.0893 24.2732 61.3856 24.406 61.6325 24.6083C61.9535 24.8612 62.1942 25.19 62.3547 25.582C62.5152 25.9803 62.5892 26.4292 62.5892 26.9414C62.5892 27.3776 62.5337 27.757 62.4288 28.0921C62.3238 28.4272 62.1819 28.7054 62.0152 28.9267C61.8485 29.148 61.6634 29.3187 61.4597 29.4451C61.2622 29.5716 61.0153 29.6664 60.7313 29.7297C60.4474 29.7929 60.1264 29.8245 59.7561 29.8245H57.5648H57.571ZM58.3734 29.148H59.6696C60.0709 29.148 60.3857 29.1164 60.614 29.0405C60.8424 28.9709 61.0214 28.8698 61.1572 28.7433C61.3486 28.5663 61.4967 28.326 61.6016 28.0225C61.7066 27.719 61.7621 27.3523 61.7621 26.9224C61.7621 26.3281 61.6572 25.8665 61.4473 25.5441C61.2375 25.2216 60.9844 25.0066 60.6881 24.8991C60.4721 24.8233 60.1264 24.779 59.645 24.779H58.3672V29.1416L58.3734 29.148Z" fill="white"/>
<path d="M67.5273 28.4904L68.2988 28.5789C68.1754 29.0025 67.9532 29.3313 67.626 29.5653C67.2989 29.7992 66.8792 29.913 66.3668 29.913C65.7249 29.913 65.2126 29.7297 64.8361 29.3566C64.4595 28.9836 64.2682 28.4588 64.2682 27.7886C64.2682 27.1184 64.4595 26.5494 64.8422 26.17C65.2249 25.7906 65.7187 25.5946 66.3236 25.5946C66.9285 25.5946 67.3915 25.7843 67.768 26.1574C68.1384 26.5367 68.3297 27.0615 68.3297 27.7443C68.3297 27.7823 68.3297 27.8455 68.3297 27.9277H65.0521C65.0768 28.3829 65.2188 28.7307 65.4595 28.9709C65.7064 29.2112 66.0088 29.3313 66.3792 29.3313C66.6508 29.3313 66.8853 29.2618 67.0767 29.129C67.268 28.9962 67.4223 28.7813 67.5334 28.4841L67.5273 28.4904ZM65.0768 27.3587H67.5334C67.5026 27.0109 67.4038 26.7517 67.2495 26.5746C67.015 26.3028 66.7063 26.17 66.3236 26.17C65.9841 26.17 65.694 26.2775 65.4595 26.4925C65.2249 26.7074 65.0953 26.9983 65.0706 27.3587H65.0768Z" fill="white"/>
<path d="M71.3604 29.8245L69.6876 25.6895H70.4777L71.4221 28.168C71.5209 28.4335 71.6196 28.7117 71.706 29.0026C71.7739 28.7876 71.8665 28.522 71.9838 28.2185L72.9591 25.6958H73.7244L72.0579 29.8308H71.3604V29.8245Z" fill="white"/>
<path d="M78.2983 28.4904L79.0698 28.5789C78.9464 29.0025 78.7242 29.3313 78.397 29.5653C78.0699 29.7992 77.6502 29.913 77.1378 29.913C76.4959 29.913 75.9836 29.7297 75.6071 29.3566C75.2305 28.9836 75.0392 28.4588 75.0392 27.7886C75.0392 27.1184 75.2305 26.5494 75.6132 26.17C75.9959 25.7906 76.4897 25.5946 77.0946 25.5946C77.6995 25.5946 78.1625 25.7843 78.539 26.1574C78.9093 26.5367 79.1007 27.0615 79.1007 27.7443C79.1007 27.7823 79.1007 27.8455 79.1007 27.9277H75.8231C75.8478 28.3829 75.9898 28.7307 76.2305 28.9709C76.4774 29.2112 76.7798 29.3313 77.1502 29.3313C77.4218 29.3313 77.6563 29.2618 77.8477 29.129C78.039 28.9962 78.1933 28.7813 78.3044 28.4841L78.2983 28.4904ZM75.854 27.3587H78.3106C78.2798 27.0109 78.181 26.7517 78.0267 26.5746C77.7921 26.3028 77.4835 26.17 77.1008 26.17C76.7613 26.17 76.4712 26.2775 76.2367 26.4925C76.0021 26.7074 75.8725 26.9983 75.8478 27.3587H75.854Z" fill="white"/>
<path d="M80.8969 29.8245V24.1151H81.6437V29.8245H80.8969Z" fill="white"/>
<path d="M83.4338 27.757C83.4338 26.9919 83.6622 26.4229 84.1128 26.0562C84.4893 25.7464 84.9523 25.5946 85.4955 25.5946C86.1004 25.5946 86.5942 25.778 86.9769 26.151C87.3596 26.5241 87.5509 27.0362 87.5509 27.6938C87.5509 28.2249 87.4645 28.6422 87.2978 28.952C87.125 29.2555 86.8781 29.4957 86.5571 29.6601C86.23 29.8308 85.8782 29.913 85.4955 29.913C84.8782 29.913 84.3844 29.7297 84.0017 29.3566C83.619 28.9836 83.4338 28.4525 83.4338 27.7507V27.757ZM84.1992 27.757C84.1992 28.2881 84.3227 28.6801 84.5696 28.9456C84.8165 29.2112 85.1251 29.3377 85.4955 29.3377C85.8658 29.3377 86.1744 29.2049 86.4213 28.9393C86.6682 28.6738 86.7917 28.2691 86.7917 27.7254C86.7917 27.2132 86.6682 26.8276 86.4213 26.562C86.1744 26.2965 85.8658 26.1637 85.5016 26.1637C85.1375 26.1637 84.8165 26.2965 84.5758 26.5557C84.3289 26.8149 84.2054 27.2132 84.2054 27.7443L84.1992 27.757Z" fill="white"/>
<path d="M89.3347 31.4115V25.6895H90.0137V26.2269C90.1742 26.0183 90.3532 25.8602 90.5569 25.7527C90.7606 25.6452 91.0013 25.5946 91.2914 25.5946C91.6679 25.5946 91.9951 25.6832 92.2852 25.8665C92.5753 26.0499 92.7913 26.3028 92.9333 26.6379C93.0814 26.9667 93.1555 27.3334 93.1555 27.7254C93.1555 28.149 93.0753 28.5283 92.9148 28.8698C92.7543 29.2112 92.5197 29.4704 92.2111 29.6475C91.9025 29.8308 91.5815 29.9193 91.242 29.9193C90.9951 29.9193 90.7729 29.8688 90.5754 29.7739C90.3779 29.6728 90.2174 29.5526 90.0878 29.4009V31.4178H89.3409L89.3347 31.4115ZM90.0137 27.776C90.0137 28.3071 90.131 28.6991 90.3594 28.9583C90.5877 29.2112 90.8655 29.3377 91.1926 29.3377C91.5198 29.3377 91.8099 29.2049 92.0444 28.9456C92.279 28.6801 92.3963 28.2754 92.3963 27.719C92.3963 27.1627 92.279 26.7959 92.0506 26.5367C91.8222 26.2775 91.5445 26.1447 91.2235 26.1447C90.9025 26.1447 90.6248 26.2838 90.3779 26.562C90.131 26.8402 90.0137 27.2449 90.0137 27.7823V27.776Z" fill="white"/>
<path d="M94.964 29.8245V25.6895H95.6306V26.2712C95.7664 26.0688 95.9516 25.9044 96.18 25.7843C96.4084 25.6579 96.6676 25.601 96.9639 25.601C97.291 25.601 97.5565 25.6642 97.7663 25.7906C97.9762 25.9171 98.1243 26.0941 98.2046 26.3217C98.5502 25.8412 99.007 25.5946 99.5625 25.5946C100.001 25.5946 100.334 25.7084 100.569 25.9361C100.803 26.1637 100.92 26.5114 100.92 26.9856V29.8245H100.18V27.2196C100.18 26.9414 100.155 26.739 100.106 26.6126C100.056 26.4861 99.9699 26.3913 99.8403 26.3154C99.7168 26.2395 99.5625 26.2016 99.3959 26.2016C99.0872 26.2016 98.828 26.2965 98.6243 26.4925C98.4206 26.6885 98.3157 26.9983 98.3157 27.4219V29.8245H97.5688V27.1374C97.5688 26.8276 97.5071 26.5936 97.3898 26.4355C97.2663 26.2775 97.0688 26.2016 96.7911 26.2016C96.5812 26.2016 96.3899 26.2522 96.2108 26.3597C96.0318 26.4672 95.9022 26.6189 95.822 26.8149C95.7417 27.0172 95.6985 27.3018 95.6985 27.6811V29.8245H94.9517H94.964Z" fill="white"/>
<path d="M105.951 28.4904L106.723 28.5789C106.599 29.0025 106.377 29.3313 106.05 29.5653C105.723 29.7992 105.303 29.913 104.791 29.913C104.149 29.913 103.636 29.7297 103.26 29.3566C102.883 28.9836 102.692 28.4588 102.692 27.7886C102.692 27.1184 102.883 26.5494 103.266 26.17C103.649 25.7843 104.143 25.5946 104.747 25.5946C105.352 25.5946 105.815 25.7843 106.192 26.1574C106.562 26.5367 106.754 27.0615 106.754 27.7443C106.754 27.7823 106.754 27.8455 106.754 27.9277H103.476C103.501 28.3829 103.643 28.7307 103.883 28.9709C104.13 29.2112 104.433 29.3313 104.803 29.3313C105.075 29.3313 105.309 29.2618 105.501 29.129C105.692 28.9962 105.846 28.7813 105.957 28.4841L105.951 28.4904ZM103.501 27.3587H105.957C105.926 27.0109 105.828 26.7517 105.673 26.5746C105.439 26.3028 105.13 26.17 104.747 26.17C104.408 26.17 104.118 26.2775 103.883 26.4925C103.649 26.7074 103.519 26.9983 103.494 27.3587H103.501Z" fill="white"/>
<path d="M108.562 29.8245V25.6895H109.235V26.2775C109.556 25.8223 110.025 25.5946 110.636 25.5946C110.902 25.5946 111.142 25.6389 111.364 25.7274C111.587 25.8159 111.753 25.9361 111.864 26.0815C111.976 26.2269 112.05 26.3976 112.093 26.5999C112.118 26.7327 112.136 26.954 112.136 27.2828V29.8245H111.389V27.3081C111.389 27.0236 111.358 26.8086 111.303 26.6695C111.241 26.5304 111.142 26.4166 110.994 26.3281C110.846 26.2459 110.673 26.2016 110.476 26.2016C110.161 26.2016 109.883 26.2965 109.655 26.4861C109.426 26.6758 109.309 27.0362 109.309 27.5673V29.8245H108.562Z" fill="white"/>
<path d="M115.821 29.1986L115.932 29.8182C115.722 29.8561 115.537 29.8814 115.37 29.8814C115.099 29.8814 114.889 29.8435 114.741 29.7613C114.593 29.6791 114.488 29.5779 114.426 29.4451C114.364 29.3124 114.333 29.0405 114.333 28.6169V26.2395H113.784V25.6958H114.333V24.6715L115.074 24.2479V25.6958H115.821V26.2395H115.074V28.6611C115.074 28.8635 115.086 28.9899 115.111 29.0468C115.136 29.1037 115.179 29.148 115.241 29.1796C115.302 29.2112 115.383 29.2302 115.494 29.2302C115.574 29.2302 115.685 29.2238 115.821 29.2049V29.1986Z" fill="white"/>
<path d="M29.2454 16.2434L23.6222 3.28197C23.3383 2.63706 23.0482 2.2008 22.7581 1.9795C22.4618 1.75821 22.1038 1.6444 21.6717 1.6444H20.6718C20.3076 1.6444 19.9928 1.75821 19.7212 1.9795C19.4496 2.2008 19.1718 2.63706 18.8879 3.28197L13.3141 16.2434C13.2586 16.3888 13.2462 16.509 13.2709 16.5975C13.2956 16.6923 13.3882 16.7366 13.5363 16.7366H15.7461C15.9251 16.7366 16.0547 16.6418 16.135 16.4584L17.3077 13.6764H17.3386L18.4188 11.1726H18.3756L21.0421 4.85631C21.0853 4.75515 21.147 4.70457 21.2273 4.70457H21.326C21.4063 4.70457 21.468 4.75515 21.5112 4.85631L24.2148 11.1726H19.8693L18.9311 13.6764H25.2826L26.4863 16.4584C26.5542 16.6481 26.6838 16.7366 26.8751 16.7366H29.0293C29.1651 16.7366 29.2454 16.6923 29.2762 16.5975C29.3071 16.5027 29.2886 16.3825 29.233 16.2434H29.2454Z" fill="white"/>
<path d="M115.327 16.2434L109.704 3.28197C109.42 2.63706 109.13 2.2008 108.84 1.9795C108.544 1.75821 108.186 1.6444 107.753 1.6444H106.754C106.389 1.6444 106.075 1.75821 105.803 1.9795C105.531 2.2008 105.254 2.63706 104.97 3.28197L99.3959 16.2434C99.3404 16.3888 99.328 16.509 99.3527 16.5975C99.3774 16.6923 99.47 16.7366 99.6181 16.7366H101.828C101.982 16.7366 102.087 16.6544 102.167 16.5216L105.044 9.78166L107.124 4.85631C107.167 4.75515 107.229 4.70457 107.309 4.70457H107.408C107.488 4.70457 107.55 4.75515 107.593 4.85631L110.29 11.1726H105.803L104.865 13.6764H111.358L112.562 16.4584C112.63 16.6481 112.759 16.7366 112.951 16.7366H115.105C115.241 16.7366 115.321 16.6923 115.352 16.5975C115.383 16.5027 115.364 16.3825 115.309 16.2434H115.327Z" fill="white"/>
<path d="M98.2169 16.2055L95.3159 11.6342C96.2109 11.4319 96.8528 10.9703 97.2479 10.2559C97.6429 9.53508 97.8404 8.56139 97.8404 7.32215V6.09555C97.8404 4.62869 97.5565 3.52223 96.9948 2.77615C96.4269 2.03008 95.4949 1.65704 94.1925 1.65704H85.0757C84.7362 1.65704 84.5634 1.87201 84.5634 2.30195V16.275C84.5634 16.5912 84.693 16.7492 84.9522 16.7492H86.7855C87.0324 16.7492 87.162 16.5912 87.162 16.275V11.9819V9.35172V4.86895C87.162 4.69824 87.2361 4.60973 87.3842 4.60973H93.6678C94.248 4.60973 94.6554 4.76779 94.89 5.08393C95.1307 5.40006 95.248 5.88058 95.248 6.53181V7.43595C95.248 8.08087 95.1307 8.56771 94.89 8.88384C94.6554 9.19998 94.248 9.35804 93.6678 9.35804H88.4582V11.9883H92.6493L95.3344 16.471C95.3899 16.5722 95.4455 16.6417 95.5072 16.686C95.5628 16.7303 95.6677 16.7492 95.8097 16.7492H98.0009C98.1614 16.7492 98.2478 16.6797 98.2725 16.5343C98.2972 16.3888 98.2725 16.2814 98.2231 16.2118L98.2169 16.2055Z" fill="white"/>
<path d="M115.691 20.9981H0.308626C0.135795 20.9981 0 20.859 0 20.6819C0 20.5049 0.135795 20.3658 0.308626 20.3658H115.691C115.864 20.3658 116 20.5049 116 20.6819C116 20.859 115.864 20.9981 115.691 20.9981Z" fill="white"/>
<path d="M59.6573 3.38946C58.7438 4.13553 58.0401 4.86264 57.4969 5.51387C57.5895 5.69723 57.6698 5.90588 57.7192 6.16511C57.7932 6.54447 57.8303 7.01866 57.8303 7.57506V10.8123C57.8303 11.375 57.7932 11.8429 57.7192 12.2222C57.6451 12.6016 57.5216 12.9051 57.355 13.1264C57.1821 13.3476 56.9538 13.5057 56.6637 13.6006C56.3735 13.6954 56.0094 13.7397 55.5711 13.7397H50.5282C50.0899 13.7397 49.7196 13.6954 49.4295 13.6006C49.1394 13.5057 48.911 13.3476 48.7443 13.1264C48.5715 12.9051 48.4542 12.6016 48.3801 12.2222C48.3061 11.8429 48.269 11.3687 48.269 10.8123V7.57506C48.269 7.01234 48.3061 6.54447 48.3801 6.16511C48.4542 5.78575 48.5777 5.48226 48.7443 5.26097C48.9172 5.03967 49.1455 4.88161 49.4295 4.78677C49.7196 4.69193 50.0838 4.64767 50.5282 4.64767H54.2317C55.2008 3.5412 56.2192 2.51693 57.1883 1.78982C56.7377 1.70131 56.2377 1.65073 55.6761 1.65073H50.4294C49.5714 1.65073 48.8369 1.75189 48.2382 1.96054C47.6394 2.16918 47.1456 2.49796 46.7691 2.95319C46.3864 3.40843 46.1148 3.99011 45.9358 4.71089C45.7568 5.43168 45.6704 6.3042 45.6704 7.34112V11.0525C45.6704 12.0894 45.7568 12.9683 45.9358 13.6954C46.1087 14.4225 46.3864 15.0105 46.7691 15.4657C47.1456 15.921 47.6394 16.2434 48.2382 16.4458C48.8369 16.6481 49.5714 16.7492 50.4294 16.7492H55.6761C56.534 16.7492 57.2686 16.6481 57.8735 16.4458C58.4784 16.2434 58.9722 15.9146 59.3487 15.4657C59.7252 15.0105 60.003 14.4225 60.1696 13.6954C60.3425 12.9683 60.4227 12.0894 60.4227 11.0525V7.34112C60.4227 6.3042 60.3363 5.43168 60.1696 4.71089C60.0524 4.20508 59.8734 3.76882 59.6511 3.38946H59.6573Z" fill="#ED1C24"/>
<path fill-rule="evenodd" clip-rule="evenodd" d="M61.4782 0.5C60.0338 1.6444 57.75 3.62339 56.2624 5.67194C54.7872 7.69519 53.744 10.18 52.5651 12.5383C51.6516 11.356 51.4972 9.50347 49.9418 8.87752C50.3368 8.20732 50.6084 7.8659 51.0343 7.22731C51.7627 7.72048 52.1639 8.49816 52.5527 9.2885C55.0341 4.81205 57.1142 2.4537 61.4782 0.5Z" fill="white"/>
</g>
<defs>
<clipPath id="clip0_10_707">
<rect width="116" height="31" fill="white" transform="translate(0 0.5)"/>
</clipPath>
</defs>
</svg>
